# xmcd CD database file
#
# Track frame offsets:
#	150
#	19265
#	34435
#
# Disc length: 711 seconds
#
# Revision: 1
# Processed by: cddbd v1.5.2PL0 Copyright (c) Steve Scherf et al.
# Submitted via: CDex 1.70beta2
#
DISCID=2102c503
DTITLE=山崎まさよし - 水のない水槽
DYEAR=1998
DGENRE=J-Pop
TTITLE0=水のない水槽
TTITLE1=ドレッシング
TTITLE2=水のない水槽 (original karaoke)
EXTD=YEAR: 1998
EXTT0=
EXTT1=
EXTT2=
PLAYORDER=
